<?xml version="1.0" standalone="no"?>
<!DOCTYPE svg PUBLIC "-//W3C//DTD SVG 20010904//EN"
 "http://www.w3.org/TR/2001/REC-SVG-20010904/DTD/svg10.dtd">
<svg version="1.0" xmlns="http://www.w3.org/2000/svg"
 width="478.000000pt" height="478.000000pt" viewBox="0 0 478.000000 478.000000"
 preserveAspectRatio="xMidYMid meet">
<metadata>
Created by potrace 1.11, written by Peter Selinger 2001-2013
</metadata>
<g transform="translate(0.000000,478.000000) scale(0.100000,-0.100000)"
fill="#000000" stroke="none">
<path d="M50 3754 l0 -1025 243 3 242 3 3 -227 2 -228 345 0 345 0 0 230 0
230 245 0 245 0 0 1020 0 1020 -330 0 -330 0 0 -720 0 -720 -180 0 -180 0 0
720 0 720 -325 0 -325 0 0 -1026z m378 44 l2 -738 450 0 450 0 0 740 0 740 40
0 40 0 0 -775 0 -775 -245 0 -245 0 0 -235 0 -235 -40 0 -40 0 0 235 0 235
-240 0 -240 0 0 776 0 775 33 -3 32 -3 3 -737z"/>
<path d="M2763 4765 c-263 -48 -504 -196 -663 -407 -71 -94 -151 -253 -179
-357 -67 -244 -45 -517 59 -739 181 -386 552 -622 979 -622 282 0 541 109 746
315 139 138 230 293 281 477 35 127 44 342 20 472 -83 438 -424 777 -866 860
-98 19 -276 19 -377 1z m425 -313 c330 -107 542 -398 542 -742 0 -344 -210
-632 -542 -743 -87 -29 -103 -31 -238 -31 -138 0 -150 1 -239 32 -259 90 -438
278 -513 539 -32 111 -32 295 0 406 84 292 307 500 602 563 41 8 107 12 180
10 95 -3 132 -9 208 -34z"/>
<path d="M2774 4390 c-483 -126 -681 -703 -381 -1107 92 -124 249 -224 404
-259 118 -26 284 -16 391 24 366 137 554 529 428 893 -36 105 -82 175 -171
264 -93 93 -198 154 -321 185 -101 26 -252 26 -350 0z m320 -281 c159 -59 267
-199 283 -364 20 -215 -140 -415 -366 -457 -214 -40 -449 137 -479 361 -19
138 26 268 127 365 124 117 283 152 435 95z"/>
<path d="M3835 2140 c-184 -21 -365 -86 -507 -181 -90 -60 -214 -192 -277
-294 -113 -180 -161 -351 -161 -571 0 -208 34 -366 113 -529 130 -266 356
-437 697 -528 108 -29 126 -30 295 -30 169 0 187 1 295 30 64 17 161 49 215
72 102 43 225 116 225 134 0 11 -310 557 -316 557 -2 0 -33 -20 -68 -44 -171
-117 -383 -139 -556 -58 -115 54 -219 194 -239 323 -29 179 91 379 269 451 46
19 74 23 175 22 138 0 202 -17 318 -86 38 -22 72 -36 76 -32 15 17 311 542
311 551 0 23 -194 118 -330 161 -154 49 -371 70 -535 52z m287 -294 c79 -15
206 -52 221 -66 5 -4 2 -21 -7 -38 l-16 -30 -69 23 c-200 68 -430 56 -605 -32
-179 -90 -301 -240 -353 -433 -23 -88 -23 -299 0 -390 31 -119 82 -207 171
-296 68 -68 97 -89 186 -133 136 -67 227 -86 370 -78 101 6 181 24 282 63 47
18 48 18 63 -1 8 -11 14 -24 15 -30 0 -18 -83 -63 -160 -86 -109 -34 -295 -32
-431 4 -246 65 -414 193 -512 392 -60 120 -80 209 -80 355 -1 134 16 219 67
334 141 318 503 505 858 442z"/>
<path d="M1000 1223 c0 -450 -3 -909 -7 -1020 l-6 -203 338 0 338 0 -6 190
c-3 104 -3 190 1 190 7 0 177 -200 263 -309 58 -74 39 -71 508 -71 239 0 422
4 425 9 3 5 -210 239 -474 521 l-480 511 277 297 c584 625 638 683 641 693 2
5 -157 9 -418 9 l-421 0 -22 -23 c-12 -13 -85 -92 -162 -176 l-140 -154 -3
177 -2 176 -325 0 -325 0 0 -817z m370 195 l0 -363 363 363 363 363 49 -3 48
-3 -376 -372 -377 -371 396 -374 397 -373 -53 -3 -52 -3 -96 92 c-54 51 -222
214 -374 362 l-278 269 0 -361 0 -361 -40 0 -40 0 0 750 0 750 35 0 35 0 0
-362z"/>
</g>
</svg>
