<?xml version="1.0" standalone="no"?>
<!DOCTYPE svg PUBLIC "-//W3C//DTD SVG 20010904//EN"
 "http://www.w3.org/TR/2001/REC-SVG-20010904/DTD/svg10.dtd">
<svg version="1.0" xmlns="http://www.w3.org/2000/svg"
 width="626.000000pt" height="626.000000pt" viewBox="0 0 626.000000 626.000000"
 preserveAspectRatio="xMidYMid meet">
<metadata>
Created by potrace 1.11, written by Peter Selinger 2001-2013
</metadata>
<g transform="translate(0.000000,626.000000) scale(0.100000,-0.100000)"
fill="#000000" stroke="none">
<path d="M393 5373 c4 -207 7 -1156 7 -2110 l0 -1733 140 0 140 0 0 -479 0
-479 108 -7 c106 -8 486 1 530 12 22 5 22 7 22 191 l0 186 38 -44 c20 -24 89
-107 153 -184 88 -108 123 -144 150 -152 24 -8 152 -10 451 -5 l417 6 -445
475 -445 475 452 3 c249 1 453 1 455 0 1 -2 7 -41 14 -88 59 -445 299 -733
723 -869 199 -64 428 -77 616 -37 166 36 399 132 468 193 l32 28 -154 269
c-84 147 -158 273 -163 278 -6 6 -28 -3 -59 -26 -222 -159 -520 -153 -683 14
-57 59 -93 117 -113 188 l-16 52 1515 0 1514 0 0 2110 0 2110 -2937 0 -2936 0
6 -377z m5767 -1733 l0 -2000 -1465 0 c-806 0 -1465 2 -1465 3 0 16 45 129 65
162 37 64 136 150 202 176 49 19 77 23 178 24 138 0 202 -17 319 -85 38 -23
73 -37 77 -33 4 4 77 130 162 280 l155 272 -37 24 c-154 102 -388 176 -606
192 -181 14 -427 -28 -579 -99 -321 -148 -542 -455 -587 -814 l-13 -102 -474
0 -474 0 95 103 c52 56 252 271 445 477 220 236 345 378 338 382 -20 14 -808
9 -833 -5 -12 -7 -67 -65 -122 -130 -145 -171 -188 -217 -200 -217 -8 0 -11
56 -11 180 l0 180 -279 0 c-153 0 -299 -3 -325 -6 l-46 -7 0 -478 0 -479 -90
0 -90 0 0 2000 0 2000 2830 0 2830 0 0 -2000z m-2347 -1285 c47 -8 117 -27
156 -41 l70 -26 -15 -29 c-8 -16 -19 -29 -24 -29 -5 0 -49 12 -97 26 -193 56
-401 40 -572 -42 -77 -38 -108 -60 -175 -127 -141 -141 -196 -281 -196 -502 0
-217 55 -361 190 -495 62 -63 94 -85 180 -127 210 -103 394 -111 629 -26 71
25 74 25 87 8 21 -29 17 -41 -23 -65 -133 -79 -348 -96 -559 -45 -90 22 -256
103 -319 155 -105 88 -183 204 -231 345 -23 67 -28 102 -32 215 -5 166 13 256
85 400 39 80 60 109 137 185 65 64 112 102 163 128 185 97 356 125 546 92z
m-2753 -360 c0 -333 1 -365 16 -357 9 5 165 162 346 348 182 186 343 347 357
356 28 19 86 24 95 9 4 -5 -163 -176 -370 -379 -207 -204 -374 -375 -373 -379
2 -5 166 -161 364 -347 198 -186 380 -358 405 -382 l45 -44 -53 0 c-52 0 -53
0 -150 90 -53 49 -225 213 -382 364 -157 151 -288 272 -292 269 -5 -2 -8 -166
-8 -364 l0 -359 -34 0 -33 0 -6 273 c-8 362 -9 1245 -2 1257 3 6 22 10 41 10
l34 0 0 -365z"/>
<path d="M3389 5514 c-532 -96 -906 -573 -876 -1117 15 -268 123 -507 316
-697 220 -218 484 -320 796 -307 248 10 455 91 646 251 140 117 271 312 327
486 225 693 -298 1405 -1027 1399 -58 0 -140 -7 -182 -15z m341 -289 c352 -74
610 -370 628 -721 6 -121 -8 -209 -51 -324 -132 -349 -512 -559 -877 -486
-551 112 -808 735 -496 1205 54 80 154 176 237 226 164 100 378 138 559 100z"/>
<path d="M3402 5140 c-224 -59 -409 -230 -485 -449 -25 -70 -31 -107 -35 -198
-6 -142 13 -232 75 -356 37 -73 63 -107 127 -172 144 -143 265 -196 466 -203
152 -5 214 8 349 74 162 80 286 224 352 411 30 84 37 265 15 366 -57 253 -260
463 -512 527 -102 26 -252 26 -352 0z m248 -260 c175 -33 319 -179 352 -357
49 -264 -221 -534 -483 -485 -190 35 -327 173 -360 360 -31 172 73 367 235
443 97 46 166 56 256 39z"/>
<path d="M680 4460 l0 -1020 243 -2 242 -3 3 -232 2 -233 299 0 c164 0 319 3
345 6 l46 7 0 228 0 229 239 0 239 0 7 268 c8 269 -2 1733 -12 1758 -4 11 -65
14 -324 14 l-319 0 0 -720 0 -720 -180 0 -180 0 0 720 0 720 -325 0 -325 0 0
-1020z m378 38 l2 -738 450 0 450 0 0 741 0 740 33 -3 32 -3 6 -180 c9 -248
10 -1115 2 -1252 l-6 -113 -238 0 -239 0 -2 -232 -3 -233 -37 -3 -38 -3 0 230
0 231 -242 2 -243 3 -3 764 c-1 572 1 767 10 778 6 8 23 13 37 11 l26 -3 3
-737z"/>
</g>
</svg>
